<?xml version="1.0" encoding="UTF-8"?>
<!DOCTYPE svg PUBLIC "-//W3C//DTD SVG 1.1//EN" "http://www.w3.org/Graphics/SVG/1.1/DTD/svg11.dtd">
<!-- Creator: CorelDRAW 2018 (64-Bit) -->
<svg xmlns="http://www.w3.org/2000/svg" xml:space="preserve" width="100mm" height="100mm" version="1.1" style="shape-rendering:geometricPrecision; text-rendering:geometricPrecision; image-rendering:optimizeQuality; fill-rule:evenodd; clip-rule:evenodd"
viewBox="0 0 10000 10000"
 xmlns:xlink="http://www.w3.org/1999/xlink">
 <defs>
  <style type="text/css">
   <![CDATA[
    .fil0 {fill:#191919}
    .fil1 {fill:white}
   ]]>
  </style>
 </defs>
 <g id="Layer_x0020_1">
  <metadata id="CorelCorpID_0Corel-Layer"/>
  <g id="_2038676016">
   <path class="fil0" d="M5000 0l0 0c2760.98,0 5000,2239.02 5000,5000l0 0c0,2760.94 -2239.02,4999.96 -5000,4999.96l0 0.04c-2760.94,-0.04 -4999.96,-2239.06 -4999.96,-5000l-0.04 0c0.04,-2760.98 2239.06,-5000 5000,-5000z"/>
   <path class="fil1" d="M3481.65 4699.98l0 -853.11 278.89 0c92.57,0 162.11,19.16 208.6,57.45 46.9,38.25 70.3,94.9 70.3,169.89 0,39.87 -11.31,75.21 -33.98,106.05 -22.64,30.5 -53.52,54.12 -92.56,70.9 46.07,12.89 82.43,37.5 109,73.86 26.95,35.9 40.4,78.87 40.4,128.88 0,76.57 -24.79,136.74 -74.42,180.47 -49.58,43.77 -119.73,65.61 -210.33,65.61l-295.9 0zm112.48 -399l0 307.05 185.77 0c52.34,0 93.54,-13.5 123.62,-40.44 30.47,-27.37 45.7,-64.86 45.7,-112.52 0,-102.73 -55.86,-154.09 -167.59,-154.09l-187.5 0zm0 -90.22l169.93 0c49.21,0 88.48,-12.32 117.77,-36.92 29.71,-24.61 44.56,-58.02 44.56,-100.2 0,-46.87 -13.68,-80.88 -41.05,-101.97 -27.32,-21.47 -68.93,-32.2 -124.8,-32.2l-166.41 0 0 271.29zm1217.39 94.9l-369.72 0 0 302.37 429.51 0 0 91.95 -542.02 0 0 -853.11 536.16 0 0 92.6 -423.65 0 0 274.2 369.72 0 0 91.99zm551.16 14.06c-96.49,-27.74 -166.79,-61.71 -210.93,-101.93 -43.73,-40.63 -65.61,-90.63 -65.61,-150.01 0,-67.2 26.75,-122.64 80.27,-166.41 53.9,-44.15 123.82,-66.22 209.77,-66.22 58.58,0 110.74,11.34 156.43,33.98 46.11,22.68 81.64,53.93 106.66,93.77 25.4,39.84 38.06,83.38 38.06,130.66l-113.09 0c0,-51.55 -16.4,-92 -49.21,-121.29 -32.8,-29.7 -79.1,-44.52 -138.85,-44.52 -55.49,0 -98.84,12.28 -130.1,36.89 -30.84,24.23 -46.29,58.01 -46.29,101.37 0,34.77 14.66,64.25 43.95,88.47 29.71,23.85 79.9,45.7 150.61,65.65 71.1,19.92 126.54,41.99 166.38,66.18 40.25,23.85 69.92,51.78 89.08,83.8 19.54,32.05 29.29,69.73 29.29,113.08 0,69.16 -26.94,124.61 -80.88,166.41 -53.89,41.42 -125.97,62.14 -216.19,62.14 -58.58,0 -113.27,-11.15 -164.07,-33.41 -50.75,-22.68 -90.02,-53.52 -117.76,-92.6 -27.37,-39.05 -41.01,-83.38 -41.01,-133l113.08 0c0,51.59 18.94,92.4 56.84,122.45 38.25,29.71 89.24,44.56 152.92,44.56 59.38,0 104.89,-12.13 136.52,-36.36 31.63,-24.19 47.47,-57.22 47.47,-99.02 0,-41.76 -14.66,-74 -43.96,-96.68 -29.29,-23.02 -82.43,-45.69 -159.38,-67.96zm1150.6 -380.25l-274.24 0 0 760.51 -111.87 0 0 -760.51 -273.64 0 0 -92.6 659.75 0 0 92.6zm-3466.61 1780.26c-96.45,-27.74 -166.79,-61.72 -210.94,-101.97 -43.72,-40.63 -65.61,-90.59 -65.61,-150.01 0,-67.16 26.76,-122.64 80.28,-166.37 53.89,-44.15 123.82,-66.22 209.76,-66.22 58.58,0 110.74,11.3 156.44,33.98 46.11,22.68 81.63,53.9 106.65,93.73 25.4,39.88 38.06,83.42 38.06,130.7l-113.08 0c0,-51.59 -16.4,-92 -49.21,-121.29 -32.8,-29.7 -79.1,-44.56 -138.86,-44.56 -55.48,0 -98.83,12.32 -130.09,36.93 -30.84,24.22 -46.26,58.01 -46.26,101.36 0,34.78 14.63,64.26 43.92,88.48 29.71,23.81 79.9,45.7 150.61,65.62 71.09,19.91 126.54,41.99 166.38,66.21 40.25,23.85 69.92,51.78 89.08,83.79 19.54,32.05 29.29,69.74 29.29,113.09 0,69.13 -26.95,124.61 -80.84,166.41 -53.94,41.42 -126.01,62.1 -216.23,62.1 -58.58,0 -113.27,-11.11 -164.07,-33.38 -50.76,-22.67 -90.03,-53.51 -117.77,-92.59 -27.32,-39.05 -41.01,-83.42 -41.01,-133.01l113.09 0c0,51.56 18.93,92.38 56.84,122.46 38.29,29.67 89.24,44.52 152.92,44.52 59.38,0 104.88,-12.09 136.52,-36.32 31.63,-24.22 47.47,-57.22 47.47,-99.02 0,-41.8 -14.67,-74 -43.96,-96.68 -29.29,-23.06 -82.43,-45.7 -159.38,-67.96zm1043.37 -14.06l-369.71 0 0 302.33 429.47 0 0 91.99 -541.99 0 0 -853.11 536.13 0 0 92.56 -423.61 0 0 274.24 369.71 0 0 91.99zm412.88 302.33l404.29 0 0 91.99 -517.38 0 0 -853.11 113.09 0 0 761.12zm745.7 0l404.29 0 0 91.99 -517.38 0 0 -853.11 113.09 0 0 761.12zm1114.84 -302.33l-369.71 0 0 302.33 429.5 0 0 91.99 -542.02 0 0 -853.11 536.16 0 0 92.56 -423.64 0 0 274.24 369.71 0 0 91.99zm612.7 49.21l-200.39 0 0 345.11 -113.08 0 0 -853.11 282.44 0c96.07,0 169.89,21.88 221.48,65.61 51.93,43.77 77.93,107.41 77.93,191.02 0,53.14 -14.47,99.44 -43.39,138.86 -28.49,39.46 -68.33,68.97 -119.5,88.48l200.39 362.11 0 7.03 -120.72 0 -185.16 -345.11zm-200.39 -91.99l172.87 0c55.83,0 100.2,-14.44 133.01,-43.35 33.18,-28.91 49.81,-67.58 49.81,-116.03 0,-52.73 -15.84,-93.17 -47.47,-121.29 -31.26,-28.12 -76.57,-42.37 -135.95,-42.78l-172.27 0 0 323.45z"/>
  </g>
 </g>
</svg>
